<svg width="11" height="12" viewBox="0 0 11 12" fill="none" xmlns="http://www.w3.org/2000/svg">
<path d="M6.705 6L10.85 1.855C10.9319 1.75935 10.9747 1.63631 10.9699 1.51047C10.965 1.38464 10.9128 1.26527 10.8238 1.17622C10.7347 1.08717 10.6154 1.035 10.4895 1.03014C10.3637 1.02528 10.2407 1.06809 10.145 1.15L6 5.295L1.855 1.145C1.76085 1.05085 1.63315 0.997954 1.5 0.997954C1.36685 0.997954 1.23915 1.05085 1.145 1.145C1.05085 1.23915 0.997954 1.36685 0.997954 1.5C0.997954 1.63315 1.05085 1.76085 1.145 1.855L5.295 6L1.145 10.145C1.09266 10.1898 1.05015 10.245 1.02014 10.307C0.990126 10.369 0.973261 10.4366 0.970601 10.5055C0.967941 10.5743 0.979544 10.643 1.00468 10.7072C1.02982 10.7713 1.06795 10.8296 1.11667 10.8783C1.1654 10.9271 1.22368 10.9652 1.28784 10.9903C1.352 11.0155 1.42067 11.0271 1.48953 11.0244C1.55839 11.0217 1.62595 11.0049 1.68798 10.9749C1.75002 10.9449 1.80518 10.9023 1.85 10.85L6 6.705L10.145 10.85C10.2407 10.9319 10.3637 10.9747 10.4895 10.9699C10.6154 10.965 10.7347 10.9128 10.8238 10.8238C10.9128 10.7347 10.965 10.6154 10.9699 10.4895C10.9747 10.3637 10.9319 10.2407 10.85 10.145L6.705 6Z" fill="#BABABA"/>
</svg>
