<svg width="18" height="18" viewBox="0 0 18 18" fill="none" xmlns="http://www.w3.org/2000/svg">
<path d="M17.2295 0.6875C17.0643 0.580267 16.8795 0.506636 16.6859 0.470815C16.4922 0.434993 16.2933 0.437682 16.1007 0.478728C15.908 0.519774 15.7254 0.598372 15.5631 0.710034C15.4008 0.821695 15.2622 0.964232 15.155 1.1295L6.75 14.085L2.651 10.295C2.50638 10.1613 2.33684 10.0574 2.15206 9.98916C1.96728 9.92096 1.77087 9.88983 1.57406 9.89754C1.17658 9.9131 0.801556 10.0859 0.5315 10.378C0.261443 10.6701 0.118471 11.0575 0.134037 11.4549C0.149602 11.8524 0.32243 12.2274 0.6145 12.4975L5.9965 17.4735C5.9965 17.4735 6.151 17.6065 6.2225 17.653C6.38774 17.7603 6.57251 17.834 6.76625 17.8699C6.95999 17.9057 7.15889 17.9031 7.3516 17.862C7.5443 17.821 7.72703 17.7423 7.88933 17.6306C8.05164 17.5189 8.19034 17.3763 8.2975 17.211L17.6715 2.762C17.7787 2.59678 17.8524 2.41205 17.8882 2.21836C17.924 2.02467 17.9213 1.82583 17.8803 1.63318C17.8392 1.44053 17.7606 1.25786 17.649 1.0956C17.5373 0.933336 17.3948 0.794663 17.2295 0.6875Z" fill="#74C7B5"/>
</svg>
